<?xml version="1.0" encoding="UTF-8" standalone="no"?>
<!-- Created with Inkscape (http://www.inkscape.org/) -->

<svg
   width="511.99997"
   height="512.00006"
   viewBox="0 0 135.46666 135.46668"
   version="1.1"
   id="svg5"
   xml:space="preserve"
   xmlns="http://www.w3.org/2000/svg"
   xmlns:svg="http://www.w3.org/2000/svg"><defs
     id="defs2" /><g
     id="layer1"
     transform="translate(-41.468075,-61.639034)"><g
       id="g1219"
       transform="translate(12.172131,-1.7388758)"><path
         id="path1225"
         style="fill:#4cb4aa;stroke-width:0.264583"
         d="m 94.429688,68.921875 c -3.88557,0.01478 -7.769629,0.292051 -11.598053,0.967333 -5.630577,0.979966 -11.28728,2.38835 -16.341401,5.13423 -2.176227,1.251208 -4.508608,2.914969 -5.12257,5.497743 -0.39558,1.915354 1.092902,3.508054 2.422808,4.661771 3.31933,2.75542 7.486946,4.19941 11.568617,5.405621 10.565369,2.912876 21.709408,3.262966 32.556621,2.024765 6.09927,-0.76705 12.25564,-1.937407 17.84354,-4.592829 2.33849,-1.19095 4.75401,-2.541437 6.31497,-4.715821 1.05129,-1.463925 0.76501,-3.512617 -0.33826,-4.861021 -2.04165,-2.583534 -5.13268,-4.0284 -8.10638,-5.261515 -5.99462,-2.336566 -12.38525,-3.533594 -18.77857,-4.080373 -3.46857,-0.204991 -6.947542,-0.210218 -10.421322,-0.179904 z M 61.310547,90.59375 c 0.05463,3.02262 -0.131102,6.060934 0.171036,9.072674 0.237444,1.707486 1.778758,2.803726 3.049971,3.782886 4.499823,3.14699 9.860608,4.77403 15.183311,5.88314 4.169098,0.79998 8.400436,1.27319 12.634186,1.55414 4.83274,0.0373 9.673289,-0.0526 14.494349,-0.39445 6.45232,-0.78591 12.94114,-2.06055 18.88411,-4.77715 2.35615,-1.11588 4.69865,-2.52089 6.28905,-4.63066 0.93584,-1.606029 0.64655,-3.55631 0.72936,-5.334714 0.005,-2.061063 8.1e-4,-4.122141 0.002,-6.18321 -1.81938,1.418705 -3.84313,2.544254 -5.98811,3.38995 -3.9386,1.610185 -8.19779,2.897734 -12.42852,3.660088 -11.5261,2.172551 -23.48442,2.142827 -35.003295,-0.07348 -4.657504,-0.892324 -9.302493,-2.333427 -13.597039,-4.275268 -1.594524,-0.689492 -3.031717,-1.669409 -4.420539,-2.701295 v 1.027344 z m 0,17.75195 c 0.05466,2.93947 -0.130748,5.89463 0.167846,8.82308 0.290402,2.02001 2.08376,3.33867 3.656469,4.40822 4.223381,2.67622 9.061462,4.22339 13.915327,5.29592 5.649472,1.13814 11.415958,1.76488 17.182233,1.74427 5.329178,-0.1009 10.677018,-0.34425 15.946618,-1.17887 5.49823,-1.05981 11.01728,-2.53375 15.92154,-5.30688 1.734,-1.06832 3.63115,-2.32169 4.33989,-4.32945 0.46247,-2.08104 0.24254,-4.24125 0.30758,-6.35785 v -4.02617 c -2.63015,1.62874 -5.37373,3.1015 -8.25994,4.1269 -4.79521,1.77178 -10.07675,2.87885 -15.22336,3.52347 -9.716044,1.15681 -19.632266,1.01868 -29.288188,-0.73631 -6.287433,-1.20554 -12.520219,-3.0383 -17.95325,-6.49233 -0.893285,-0.61423 -0.706041,-0.42411 -0.712765,0.506 z m 0.263672,17.41992 c -0.345846,0.83927 -0.151494,1.83281 -0.243764,2.73053 0.02591,2.27701 -0.172196,4.5859 0.223814,6.83896 0.379197,1.71009 1.933426,2.76557 3.215146,3.79719 3.784792,2.57592 8.227502,3.97243 12.632467,5.06709 3.983384,0.94545 8.062463,1.42469 12.127776,1.85186 5.636116,0.0551 11.280212,0.0754 16.909922,-0.21671 4.48319,-0.32168 8.91551,-1.22707 13.23504,-2.4515 3.71542,-1.13232 7.50382,-2.47551 10.53967,-4.97454 1.14089,-0.93912 2.30551,-2.09494 2.39899,-3.66436 0.23094,-2.76828 0.14083,-5.5583 0.0391,-8.33203 0.0118,-0.4146 -0.25562,-1.17599 -0.76172,-0.83008 -1.13259,0.58074 -2.17431,1.34907 -3.34387,1.87547 -4.42996,2.22949 -9.32149,3.57414 -14.19093,4.50523 -9.64565,1.75734 -19.559821,1.95498 -29.290629,0.81943 -5.85042,-0.72304 -11.634643,-1.94025 -17.060392,-4.17889 -1.990911,-0.80973 -3.880543,-1.83555 -5.721596,-2.98218 -0.333472,-0.11752 -0.525682,-0.27213 -0.708984,0.14453 z" /><path
         style="fill:#556563;stroke-width:0.264583"
         d="m 125.01933,187.00674 c 0.91521,-0.0518 2.34396,-0.0514 3.175,0.001 0.83104,0.0523 0.0822,0.0947 -1.66402,0.0942 -1.74625,-5.3e-4 -2.42619,-0.0434 -1.51098,-0.0952 z m 25.00768,-0.002 c 1.71808,-0.0461 4.45652,-0.046 6.08542,2.7e-4 1.6289,0.0463 0.2232,0.0841 -3.12378,0.0839 -3.34698,-1.8e-4 -4.67972,-0.0381 -2.96164,-0.0843 z m -11.94555,-2.97724 c 0,-0.36381 0.0601,-0.51264 0.13346,-0.33073 0.0734,0.1819 0.0734,0.47955 0,0.66145 -0.0734,0.18191 -0.13346,0.0331 -0.13346,-0.33072 z m -13.46937,-2.84032 c 0.69122,-0.0545 1.82231,-0.0545 2.51354,0 0.69122,0.0545 0.12567,0.0991 -1.25677,0.0991 -1.38245,0 -1.948,-0.0446 -1.25677,-0.0991 z m 27.78124,-0.003 c 1.27331,-0.0485 3.3569,-0.0485 4.63021,0 1.27331,0.0485 0.23151,0.0882 -2.3151,0.0882 -2.54662,0 -3.58841,-0.0397 -2.31511,-0.0882 z m -37.61608,-1.54484 c 0.0127,-0.30823 0.0754,-0.37092 0.15985,-0.15986 0.0764,0.191 0.067,0.41921 -0.0209,0.50712 -0.0879,0.0879 -0.15045,-0.0684 -0.13896,-0.34726 z m 23.30421,-0.90387 c 0,-0.3638 0.0601,-0.51263 0.13346,-0.33073 0.0734,0.1819 0.0734,0.47956 0,0.66146 -0.0734,0.1819 -0.13346,0.0331 -0.13346,-0.33073 z M 90.563993,177.2263 c -0.143584,-0.37709 -0.113194,-0.40748 0.148113,-0.14812 0.180822,0.17948 0.262115,0.39297 0.180653,0.47443 -0.08146,0.0815 -0.229407,-0.0654 -0.328766,-0.32631 z m 41.232847,-0.67287 -0.50403,-0.59532 0.59532,0.50403 c 0.55944,0.47366 0.71576,0.6866 0.50403,0.6866 -0.0502,0 -0.3181,-0.26789 -0.59532,-0.59531 z M 43.654625,175.1133 c 0.257431,-0.0671 0.614618,-0.0627 0.79375,0.01 0.179131,0.0725 -0.03149,0.12736 -0.468057,0.12197 -0.436562,-0.005 -0.583124,-0.0647 -0.325693,-0.13177 z m 2.045485,-0.44571 c 0,-0.0549 0.208359,-0.2633 0.463021,-0.46302 0.419644,-0.32911 0.429002,-0.31975 0.09989,0.0999 -0.345643,0.44073 -0.562915,0.58089 -0.562915,0.36312 z m 20.868332,-4.33187 c -0.329107,-0.41965 -0.319749,-0.42901 0.0999,-0.0999 0.254661,0.19972 0.463021,0.40808 0.463021,0.46302 0,0.21777 -0.217273,0.0776 -0.562917,-0.36312 z m 37.041668,-2.38125 c -0.32911,-0.41965 -0.31975,-0.429 0.0999,-0.0999 0.44073,0.34565 0.58089,0.56292 0.36313,0.56292 -0.0549,0 -0.2633,-0.20836 -0.46302,-0.46302 z m 34.47135,-1.91823 c 0,-0.3638 0.0601,-0.51263 0.13346,-0.33073 0.0734,0.1819 0.0734,0.47956 0,0.66146 -0.0734,0.1819 -0.13346,0.0331 -0.13346,-0.33073 z m -23.30421,-0.94809 c 0.0127,-0.30823 0.0754,-0.37092 0.15985,-0.15985 0.0764,0.19099 0.067,0.4192 -0.0209,0.50712 -0.0879,0.0879 -0.15045,-0.0684 -0.13896,-0.34727 z m -18.47558,-1.62267 c 0.400182,-0.0606 1.055026,-0.0606 1.455208,0 0.400182,0.0606 0.07276,0.11022 -0.727604,0.11022 -0.800365,0 -1.127786,-0.0496 -0.727604,-0.11022 z m -8.929687,-2.19174 c 0.26339,-0.29104 0.538422,-0.52917 0.611182,-0.52917 0.07276,0 -0.08321,0.23813 -0.346599,0.52917 -0.26339,0.29104 -0.538422,0.52917 -0.611182,0.52917 -0.07276,0 0.08321,-0.23813 0.346599,-0.52917 z m 18.897677,-0.19844 -0.64143,-0.7276 0.72761,0.64143 c 0.68005,0.59952 0.84894,0.81378 0.64143,0.81378 -0.0474,0 -0.37482,-0.32743 -0.72761,-0.72761 z m 11.13253,-0.95979 c 0,-0.0549 0.20836,-0.2633 0.46302,-0.46302 0.41965,-0.32911 0.429,-0.31975 0.0999,0.0999 -0.34565,0.44073 -0.56292,0.58088 -0.56292,0.36312 z m -66.807289,-1.4876 c 0.263389,-0.29105 0.538421,-0.52917 0.611181,-0.52917 0.07276,0 -0.08321,0.23812 -0.346597,0.52917 -0.263389,0.29104 -0.538421,0.52916 -0.611181,0.52916 -0.07276,0 0.08321,-0.23812 0.346597,-0.52916 z m -17.859374,0.16468 c 0,-0.0549 0.20836,-0.2633 0.463021,-0.46302 0.419644,-0.3291 0.429002,-0.31975 0.09989,0.0999 -0.345644,0.44073 -0.562916,0.58089 -0.562916,0.36312 z m 21.926667,-0.36312 c -0.329108,-0.41965 -0.319749,-0.429 0.0999,-0.0999 0.254661,0.19972 0.46302,0.40808 0.46302,0.46302 0,0.21777 -0.217272,0.0776 -0.562915,-0.36312 z M 34.923375,157.6508 c 0.257431,-0.0671 0.614618,-0.0627 0.79375,0.01 0.179131,0.0725 -0.03149,0.12736 -0.468056,0.12197 -0.436563,-0.005 -0.583125,-0.0647 -0.325694,-0.13177 z m 17.589755,0.008 c 0.181901,-0.0734 0.479558,-0.0734 0.661459,0 0.181901,0.0734 0.03307,0.13345 -0.330729,0.13345 -0.363803,0 -0.512631,-0.0601 -0.33073,-0.13345 z m 43.78854,-0.0143 c 0.400182,-0.0606 1.055026,-0.0606 1.455208,0 0.400182,0.0606 0.07276,0.11022 -0.727604,0.11022 -0.800365,0 -1.127786,-0.0496 -0.727604,-0.11022 z m 26.32604,0.0143 c 0.1819,-0.0734 0.47956,-0.0734 0.66146,0 0.1819,0.0734 0.0331,0.13345 -0.33073,0.13345 -0.3638,0 -0.51263,-0.0601 -0.33073,-0.13345 z m 6.87917,0 c 0.1819,-0.0734 0.47955,-0.0734 0.66145,0 0.18191,0.0734 0.0331,0.13345 -0.33072,0.13345 -0.36381,0 -0.51263,-0.0601 -0.33073,-0.13345 z m 17.19791,0 c 0.1819,-0.0734 0.47956,-0.0734 0.66146,0 0.1819,0.0734 0.0331,0.13345 -0.33073,0.13345 -0.3638,0 -0.51263,-0.0601 -0.33073,-0.13345 z m -53.710412,-6.10159 c 0.472943,-0.0587 1.246849,-0.0587 1.719792,0 0.472943,0.0587 0.08599,0.10671 -0.859896,0.10671 -0.945885,0 -1.332838,-0.048 -0.859896,-0.10671 z m 6.35,0 c 0.472943,-0.0587 1.246852,-0.0587 1.719792,0 0.47294,0.0587 0.086,0.10671 -0.8599,0.10671 -0.945882,0 -1.332835,-0.048 -0.859892,-0.10671 z M 88.496462,151.3088 c 0.181901,-0.0734 0.479557,-0.0734 0.661458,0 0.181901,0.0734 0.03307,0.13345 -0.330729,0.13345 -0.363802,0 -0.51263,-0.0601 -0.330729,-0.13345 z m 16.404168,0 c 0.1819,-0.0734 0.47956,-0.0734 0.66146,0 0.1819,0.0734 0.0331,0.13345 -0.33073,0.13345 -0.36381,0 -0.51263,-0.0601 -0.33073,-0.13345 z m -19.314585,-0.26458 c 0.181901,-0.0734 0.479558,-0.0734 0.661459,0 0.181901,0.0734 0.03307,0.13345 -0.330729,0.13345 -0.363803,0 -0.512631,-0.0601 -0.33073,-0.13345 z m 22.224995,0 c 0.18191,-0.0734 0.47956,-0.0734 0.66146,0 0.1819,0.0734 0.0331,0.13345 -0.33073,0.13345 -0.3638,0 -0.51263,-0.0601 -0.33073,-0.13345 z m -24.060541,-0.2701 c 0.190994,-0.0764 0.419197,-0.067 0.507119,0.0209 0.08792,0.0879 -0.06835,0.15045 -0.347266,0.13896 -0.308226,-0.0127 -0.370919,-0.0754 -0.159853,-0.15985 z m 26.193751,0 c 0.19099,-0.0764 0.4192,-0.067 0.50712,0.0209 0.0879,0.0879 -0.0684,0.15045 -0.34727,0.13896 -0.30823,-0.0127 -0.37092,-0.0754 -0.15985,-0.15985 z m -15.23008,-5.04334 c 1.273307,-0.0485 3.356901,-0.0485 4.630208,0 1.273312,0.0485 0.23151,0.0882 -2.315104,0.0882 -2.546614,0 -3.588411,-0.0397 -2.315104,-0.0882 z m -5.815798,-0.25094 c 0.257432,-0.0671 0.614619,-0.0627 0.79375,0.01 0.179131,0.0725 -0.03149,0.12736 -0.468056,0.12197 -0.436562,-0.005 -0.583126,-0.0647 -0.325694,-0.13178 z m 15.610418,0 c 0.25743,-0.0671 0.61462,-0.0627 0.79375,0.01 0.17913,0.0725 -0.0315,0.12736 -0.46806,0.12197 -0.43656,-0.005 -0.58312,-0.0647 -0.32569,-0.13178 z m -18.520835,-0.26458 c 0.257432,-0.0671 0.61462,-0.0627 0.79375,0.01 0.179131,0.0725 -0.03149,0.12737 -0.468055,0.12197 -0.436563,-0.005 -0.583126,-0.0647 -0.325695,-0.13177 z m 21.431245,0 c 0.25744,-0.0671 0.61462,-0.0627 0.79375,0.01 0.17914,0.0725 -0.0315,0.12737 -0.46805,0.12197 -0.43656,-0.005 -0.58313,-0.0647 -0.3257,-0.13177 z M 83.998545,144.9588 c 0.181902,-0.0734 0.479558,-0.0734 0.661459,0 0.181901,0.0734 0.03307,0.13345 -0.330729,0.13345 -0.363802,0 -0.512631,-0.06 -0.33073,-0.13345 z m 25.399995,0 c 0.18191,-0.0734 0.47956,-0.0734 0.66146,0 0.1819,0.0734 0.0331,0.13345 -0.33073,0.13345 -0.3638,0 -0.51263,-0.06 -0.33073,-0.13345 z m -27.235541,-0.2701 c 0.190994,-0.0764 0.419198,-0.067 0.507119,0.0209 0.08792,0.0879 -0.06835,0.15045 -0.347266,0.13896 -0.308226,-0.0127 -0.370919,-0.0754 -0.159853,-0.15985 z m 29.368751,0 c 0.19099,-0.0764 0.4192,-0.067 0.50712,0.0209 0.0879,0.0879 -0.0684,0.15045 -0.34727,0.13896 -0.30823,-0.0127 -0.37092,-0.0754 -0.15985,-0.15985 z m -51.842474,-2.6634 c -0.329108,-0.41964 -0.319749,-0.429 0.0999,-0.0999 0.254661,0.19972 0.46302,0.40808 0.46302,0.46302 0,0.21776 -0.217273,0.0776 -0.562916,-0.36313 z m 74.117084,0.36313 c 0,-0.0549 0.20835,-0.2633 0.46302,-0.46302 0.41964,-0.32911 0.429,-0.31975 0.0999,0.0999 -0.34564,0.44073 -0.56291,0.58089 -0.56291,0.36313 z m -75.175418,-1.42146 c -0.329107,-0.41965 -0.319749,-0.429 0.0999,-0.0999 0.254662,0.19972 0.463021,0.40808 0.463021,0.46302 0,0.21777 -0.217273,0.0776 -0.562917,-0.36312 z m 76.233748,0.36312 c 0,-0.0549 0.20836,-0.2633 0.46302,-0.46302 0.41964,-0.3291 0.429,-0.31975 0.0999,0.0999 -0.34565,0.44073 -0.56292,0.58089 -0.56292,0.36312 z m -71.586434,-3.935 -0.777105,-0.85989 0.859895,0.7771 c 0.801545,0.72438 0.981512,0.94269 0.777106,0.94269 -0.04554,0 -0.432488,-0.38695 -0.859896,-0.8599 z m 66.559354,0.77711 c 0,-0.0455 0.38695,-0.43249 0.85989,-0.8599 l 0.8599,-0.7771 -0.77711,0.85989 c -0.72437,0.80155 -0.94268,0.98152 -0.94268,0.77711 z m -74.062445,-3.77572 c 0.0127,-0.30822 0.07539,-0.37091 0.159851,-0.15985 0.07643,0.191 0.06703,0.4192 -0.02088,0.50712 -0.08792,0.0879 -0.150453,-0.0684 -0.138965,-0.34727 z m 82.285415,0 c 0.0127,-0.30822 0.0754,-0.37091 0.15985,-0.15985 0.0764,0.191 0.067,0.4192 -0.0209,0.50712 -0.0879,0.0879 -0.15045,-0.0684 -0.13896,-0.34727 z m -76.435444,-4.14513 c -0.02751,-2.43748 0.03927,-4.43202 0.148411,-4.43232 0.10914,-2.6e-4 0.167211,1.33916 0.129047,2.97657 -0.126296,5.41852 -0.226771,5.94569 -0.277458,1.45575 z m 70.539914,-0.0665 c -0.0432,-2.40129 0.0108,-4.36582 0.11995,-4.36563 0.10914,2e-4 0.19844,1.96489 0.19844,4.36598 0,2.40109 -0.054,4.36562 -0.11995,4.36562 -0.066,0 -0.15527,-1.96469 -0.19844,-4.36597 z m -40.886825,3.64695 c 0.402182,-0.0608 0.997495,-0.0592 1.322916,0.004 0.325422,0.0628 -0.0036,0.11256 -0.731242,0.11057 -0.727604,-0.002 -0.993857,-0.0534 -0.591674,-0.11419 z m 10.318745,0 c 0.40219,-0.0608 0.9975,-0.0592 1.32292,0.004 0.32542,0.0628 -0.004,0.11256 -0.73124,0.11057 -0.72761,-0.002 -0.99386,-0.0534 -0.59168,-0.11419 z m -13.756931,-0.25808 c 0.257431,-0.0671 0.614619,-0.0627 0.79375,0.01 0.17913,0.0725 -0.03149,0.12736 -0.468056,0.12197 -0.436563,-0.005 -0.583126,-0.0647 -0.325694,-0.13178 z m 17.727081,0 c 0.25743,-0.0671 0.61462,-0.0627 0.79375,0.01 0.17913,0.0725 -0.0315,0.12736 -0.46805,0.12197 -0.43657,-0.005 -0.58313,-0.0647 -0.3257,-0.13178 z m -20.245658,-0.25646 c 0.181901,-0.0734 0.479557,-0.0734 0.661458,0 0.181901,0.0734 0.03307,0.13346 -0.330729,0.13346 -0.363802,0 -0.51263,-0.0601 -0.330729,-0.13346 z m 22.754168,0 c 0.1819,-0.0734 0.47955,-0.0734 0.66146,0 0.1819,0.0734 0.0331,0.13346 -0.33073,0.13346 -0.36381,0 -0.51263,-0.0601 -0.33073,-0.13346 z m -24.589715,-0.27009 c 0.190995,-0.0764 0.419198,-0.067 0.507119,0.0209 0.08792,0.0879 -0.06835,0.15046 -0.347265,0.13897 -0.308227,-0.0127 -0.37092,-0.0754 -0.159854,-0.15985 z m 26.722915,0 c 0.191,-0.0764 0.4192,-0.067 0.50712,0.0209 0.0879,0.0879 -0.0684,0.15046 -0.34727,0.13897 -0.30822,-0.0127 -0.37092,-0.0754 -0.15985,-0.15985 z m -28.574998,-0.26459 c 0.190995,-0.0764 0.419198,-0.067 0.507119,0.0209 0.08792,0.0879 -0.06835,0.15045 -0.347266,0.13896 -0.308226,-0.0127 -0.370919,-0.0754 -0.159853,-0.15985 z m 30.427078,0 c 0.191,-0.0764 0.4192,-0.067 0.50712,0.0209 0.0879,0.0879 -0.0683,0.15045 -0.34726,0.13896 -0.30823,-0.0127 -0.37092,-0.0754 -0.15986,-0.15985 z M 80.046332,132.518 c 0.190995,-0.0764 0.419198,-0.067 0.507119,0.0209 0.08792,0.0879 -0.06835,0.15045 -0.347266,0.13896 -0.308226,-0.0127 -0.370919,-0.0754 -0.159853,-0.15985 z m 33.602078,0 c 0.191,-0.0764 0.4192,-0.067 0.50712,0.0209 0.0879,0.0879 -0.0683,0.15045 -0.34726,0.13896 -0.30823,-0.0127 -0.37092,-0.0754 -0.15986,-0.15985 z m -34.924994,-0.26458 c 0.190994,-0.0764 0.419197,-0.067 0.507118,0.0209 0.08792,0.0879 -0.06835,0.15046 -0.347265,0.13897 -0.308227,-0.0127 -0.37092,-0.0754 -0.159853,-0.15985 z m 36.247914,0 c 0.191,-0.0764 0.4192,-0.067 0.50712,0.0209 0.0879,0.0879 -0.0683,0.15046 -0.34727,0.13897 -0.30822,-0.0127 -0.37092,-0.0754 -0.15985,-0.15985 z m -22.770702,-4.244 c 0.472943,-0.0587 1.246849,-0.0587 1.719792,0 0.472943,0.0587 0.08599,0.10672 -0.859896,0.10672 -0.945885,0 -1.332838,-0.048 -0.859896,-0.10672 z m 7.937502,0 c 0.47294,-0.0587 1.24685,-0.0587 1.71979,0 0.47294,0.0587 0.086,0.10672 -0.8599,0.10672 -0.94588,0 -1.332835,-0.048 -0.85989,-0.10672 z m -12.033508,-0.25653 c 0.257432,-0.0671 0.614619,-0.0627 0.79375,0.01 0.179131,0.0725 -0.03149,0.12737 -0.468056,0.12197 -0.436562,-0.005 -0.583126,-0.0647 -0.325694,-0.13177 z m 17.197918,0 c 0.25743,-0.0671 0.61462,-0.0627 0.79375,0.01 0.17913,0.0725 -0.0315,0.12737 -0.46806,0.12197 -0.43656,-0.005 -0.58312,-0.0647 -0.32569,-0.13177 z m -19.716495,-0.25646 c 0.181901,-0.0734 0.479558,-0.0734 0.661459,0 0.181901,0.0734 0.03307,0.13345 -0.330729,0.13345 -0.363803,0 -0.512631,-0.0601 -0.33073,-0.13345 z m 22.224995,0 c 0.18191,-0.0734 0.47956,-0.0734 0.66146,0 0.1819,0.0734 0.0331,0.13345 -0.33073,0.13345 -0.3638,0 -0.51263,-0.0601 -0.33073,-0.13345 z m -24.060541,-0.27009 c 0.190994,-0.0764 0.419197,-0.067 0.507119,0.0209 0.08792,0.0879 -0.06835,0.15045 -0.347266,0.13897 -0.308226,-0.0127 -0.370919,-0.0754 -0.159853,-0.15986 z m 26.193751,0 c 0.19099,-0.0764 0.4192,-0.067 0.50712,0.0209 0.0879,0.0879 -0.0684,0.15045 -0.34727,0.13897 -0.30823,-0.0127 -0.37092,-0.0754 -0.15985,-0.15986 z m -29.368751,-0.52917 c 0.190995,-0.0764 0.419198,-0.067 0.507119,0.0209 0.08792,0.0879 -0.06835,0.15046 -0.347266,0.13897 -0.308226,-0.0127 -0.370919,-0.0754 -0.159853,-0.15985 z m 32.543751,0 c 0.19099,-0.0764 0.4192,-0.067 0.50712,0.0209 0.0879,0.0879 -0.0684,0.15046 -0.34727,0.13897 -0.30823,-0.0127 -0.37092,-0.0754 -0.15985,-0.15985 z M 61.682818,112.32583 c 0,-2.4011 0.04011,-3.38336 0.08914,-2.18282 0.04903,1.20055 0.04903,3.16508 0,4.36563 -0.04903,1.20054 -0.08914,0.21828 -0.08914,-2.18281 z m 35.015727,4.0581 c 0.181901,-0.0734 0.479557,-0.0734 0.661458,0 0.181901,0.0734 0.03307,0.13345 -0.330729,0.13345 -0.363802,0 -0.51263,-0.0601 -0.330729,-0.13345 z m 35.628015,-4.0581 c 0,-2.4011 0.0401,-3.38336 0.0891,-2.18282 0.049,1.20055 0.049,3.16508 0,4.36563 -0.049,1.20054 -0.0891,0.21828 -0.0891,-2.18281 z m -42.106668,3.77889 c 0.402182,-0.0608 0.997495,-0.0592 1.322916,0.004 0.325422,0.0628 -0.0036,0.11256 -0.731242,0.11058 -0.727604,-0.002 -0.993857,-0.0534 -0.591674,-0.11419 z m 12.435418,0 c 0.40218,-0.0608 0.99749,-0.0592 1.32291,0.004 0.32543,0.0628 -0.004,0.11256 -0.73124,0.11058 -0.7276,-0.002 -0.99385,-0.0534 -0.59167,-0.11419 z m -15.344438,-0.25808 c 0.257432,-0.0671 0.614619,-0.0627 0.79375,0.01 0.179131,0.0725 -0.03149,0.12737 -0.468056,0.12197 -0.436562,-0.005 -0.583126,-0.0647 -0.325694,-0.13177 z m 18.785418,0 c 0.25743,-0.0671 0.61462,-0.0627 0.79375,0.01 0.17913,0.0725 -0.0315,0.12737 -0.46806,0.12197 -0.43656,-0.005 -0.58312,-0.0647 -0.32569,-0.13177 z m -21.303995,-0.25646 c 0.181901,-0.0734 0.479558,-0.0734 0.661459,0 0.181901,0.0734 0.03307,0.13345 -0.330729,0.13345 -0.363802,0 -0.512631,-0.0601 -0.33073,-0.13345 z m 23.812495,0 c 0.18191,-0.0734 0.47956,-0.0734 0.66146,0 0.1819,0.0734 0.0331,0.13345 -0.33073,0.13345 -0.3638,0 -0.51263,-0.0601 -0.33073,-0.13345 z m -25.648041,-0.27009 c 0.190994,-0.0764 0.419198,-0.067 0.507119,0.0209 0.08792,0.0879 -0.06835,0.15045 -0.347266,0.13897 -0.308226,-0.0127 -0.370919,-0.0754 -0.159853,-0.15985 z m 27.781251,0 c 0.19099,-0.0764 0.4192,-0.067 0.50712,0.0209 0.0879,0.0879 -0.0684,0.15045 -0.34727,0.13897 -0.30823,-0.0127 -0.37092,-0.0754 -0.15985,-0.15985 z M 81.369249,115.0555 c 0.190994,-0.0764 0.419198,-0.067 0.507119,0.0209 0.08792,0.0879 -0.06835,0.15045 -0.347266,0.13896 -0.308226,-0.0127 -0.370919,-0.0754 -0.159853,-0.15985 z m 30.956251,0 c 0.19099,-0.0764 0.4192,-0.067 0.50712,0.0209 0.0879,0.0879 -0.0684,0.15045 -0.34727,0.13896 -0.30823,-0.0127 -0.37092,-0.0754 -0.15985,-0.15985 z m -32.543751,-0.26458 c 0.190995,-0.0764 0.419198,-0.067 0.507119,0.0209 0.08792,0.0879 -0.06835,0.15046 -0.347266,0.13897 -0.308226,-0.0127 -0.370919,-0.0754 -0.159853,-0.15985 z m 34.131251,0 c 0.19099,-0.0764 0.4192,-0.067 0.50712,0.0209 0.0879,0.0879 -0.0684,0.15046 -0.34727,0.13897 -0.30823,-0.0127 -0.37092,-0.0754 -0.15985,-0.15985 z m -23.035288,-4.5039 c 0.327422,-0.0631 0.863203,-0.0631 1.190625,0 0.327422,0.0631 0.05953,0.11466 -0.595313,0.11466 -0.654843,0 -0.922734,-0.0516 -0.595312,-0.11466 z m 11.112498,0 c 0.32742,-0.0631 0.8632,-0.0631 1.19063,0 0.32742,0.0631 0.0595,0.11466 -0.59532,0.11466 -0.65484,0 -0.92273,-0.0516 -0.59531,-0.11466 z m -14.414755,-0.26121 c 0.257432,-0.0671 0.614619,-0.0627 0.79375,0.01 0.179131,0.0725 -0.03149,0.12736 -0.468056,0.12197 -0.436562,-0.005 -0.583125,-0.0647 -0.325694,-0.13177 z m 18.256245,0 c 0.25744,-0.0671 0.61462,-0.0627 0.79375,0.01 0.17914,0.0725 -0.0315,0.12736 -0.46805,0.12197 -0.43656,-0.005 -0.58313,-0.0647 -0.3257,-0.13177 z m -20.774821,-0.25646 c 0.181901,-0.0734 0.479557,-0.0734 0.661458,0 0.181901,0.0734 0.03307,0.13345 -0.330729,0.13345 -0.363802,0 -0.51263,-0.0601 -0.330729,-0.13345 z m 23.283331,0 c 0.1819,-0.0734 0.47956,-0.0734 0.66146,0 0.1819,0.0734 0.0331,0.13345 -0.33073,0.13345 -0.3638,0 -0.51263,-0.0601 -0.33073,-0.13345 z m -25.135414,-0.26459 c 0.181901,-0.0734 0.479557,-0.0734 0.661458,0 0.181901,0.0734 0.03307,0.13346 -0.330729,0.13346 -0.363802,0 -0.512631,-0.0601 -0.330729,-0.13346 z m 26.987494,0 c 0.18191,-0.0734 0.47956,-0.0734 0.66146,0 0.1819,0.0734 0.0331,0.13346 -0.33073,0.13346 -0.3638,0 -0.51263,-0.0601 -0.33073,-0.13346 z m -28.558458,-0.27009 c 0.190995,-0.0764 0.419198,-0.067 0.507119,0.0209 0.08792,0.0879 -0.06835,0.15046 -0.347266,0.13897 -0.308226,-0.0127 -0.370919,-0.0754 -0.159853,-0.15985 z m 30.427078,0 c 0.191,-0.0764 0.4192,-0.067 0.50712,0.0209 0.0879,0.0879 -0.0683,0.15046 -0.34726,0.13897 -0.30823,-0.0127 -0.37092,-0.0754 -0.15986,-0.15985 z m -31.749995,-0.26458 c 0.190995,-0.0764 0.419198,-0.067 0.507119,0.0209 0.08792,0.0879 -0.06835,0.15045 -0.347265,0.13897 -0.308227,-0.0127 -0.37092,-0.0754 -0.159854,-0.15985 z m 33.072915,0 c 0.191,-0.0764 0.4192,-0.067 0.50712,0.0209 0.0879,0.0879 -0.0684,0.15045 -0.34727,0.13897 -0.30822,-0.0127 -0.37092,-0.0754 -0.15985,-0.15985 z m -49.976664,-6.89687 -0.641432,-0.7276 0.727604,0.64143 c 0.680056,0.59952 0.84894,0.81378 0.641432,0.81378 -0.04739,0 -0.374814,-0.32743 -0.727604,-0.72761 z m 66.959604,0.0661 c 0.34178,-0.3638 0.68094,-0.66146 0.7537,-0.66146 0.0728,0 -0.14734,0.29766 -0.48911,0.66146 -0.34178,0.3638 -0.68094,0.66146 -0.7537,0.66146 -0.0728,0 0.14734,-0.29766 0.48911,-0.66146 z M 61.683371,94.731034 c -2.64e-4,-2.473854 0.03947,-3.521498 0.08837,-2.328095 0.04891,1.193401 0.04916,3.217463 5.29e-4,4.497917 -0.0486,1.280451 -0.08862,0.304033 -0.08893,-2.169822 z m 33.427674,3.904586 c 1.055026,-0.05022 2.781432,-0.05022 3.836458,0 1.055027,0.05022 0.191823,0.09131 -1.918229,0.09131 -2.110052,0 -2.973255,-0.04109 -1.918229,-0.09131 z m 37.215515,-4.036877 c 0,-2.401094 0.0401,-3.383359 0.0891,-2.182813 0.049,1.200547 0.049,3.165078 0,4.365625 -0.049,1.200547 -0.0891,0.218281 -0.0891,-2.182812 z m -42.76868,3.78162 c 0.329118,-0.06329 0.805368,-0.06088 1.058334,0.0053 0.252965,0.06622 -0.01632,0.118004 -0.598398,0.115067 -0.582083,-0.0029 -0.789054,-0.05712 -0.459936,-0.120406 z m 14.02292,0 c 0.32911,-0.06329 0.80536,-0.06088 1.05833,0.0053 0.25296,0.06622 -0.0163,0.118004 -0.5984,0.115067 -0.58208,-0.0029 -0.78905,-0.05712 -0.45993,-0.120406 z M 86.512087,98.120524 c 0.254661,-0.06655 0.67138,-0.06655 0.926042,0 0.254661,0.06655 0.0463,0.121002 -0.463021,0.121002 -0.509323,0 -0.717682,-0.05445 -0.463021,-0.121002 z m 20.108333,0 c 0.25466,-0.06655 0.67138,-0.06655 0.92604,0 0.25466,0.06655 0.0463,0.121002 -0.46302,0.121002 -0.50932,0 -0.71768,-0.05445 -0.46302,-0.121002 z M 84.544249,97.857586 c 0.190994,-0.07643 0.419197,-0.06703 0.507118,0.02088 0.08792,0.08792 -0.06835,0.150453 -0.347265,0.138965 -0.308226,-0.0127 -0.370919,-0.07539 -0.159853,-0.159851 z m 24.606251,0 c 0.19099,-0.07643 0.4192,-0.06703 0.50712,0.02088 0.0879,0.08792 -0.0684,0.150453 -0.34727,0.138965 -0.30823,-0.0127 -0.37092,-0.07539 -0.15985,-0.159851 z M 82.411046,97.598514 c 0.181901,-0.0734 0.479557,-0.0734 0.661458,0 0.181901,0.0734 0.03307,0.133454 -0.330729,0.133454 -0.363802,0 -0.51263,-0.06006 -0.330729,-0.133454 z m 28.574994,0 c 0.18191,-0.0734 0.47956,-0.0734 0.66146,0 0.1819,0.0734 0.0331,0.133454 -0.33073,0.133454 -0.3638,0 -0.51263,-0.06006 -0.33073,-0.133454 z M 79.517165,97.063836 c 0.190995,-0.07643 0.419198,-0.06703 0.507119,0.02088 0.08792,0.08792 -0.06835,0.150453 -0.347265,0.138965 -0.308227,-0.0127 -0.37092,-0.07539 -0.159854,-0.159851 z m 34.660415,0 c 0.191,-0.07643 0.4192,-0.06703 0.50712,0.02088 0.0879,0.08792 -0.0684,0.150453 -0.34727,0.138965 -0.30822,-0.0127 -0.37092,-0.07539 -0.15985,-0.159851 z M 96.30167,92.821735 c 0.400182,-0.06062 1.055026,-0.06062 1.455208,0 0.400182,0.06062 0.07276,0.110223 -0.727604,0.110223 -0.800365,0 -1.127786,-0.0496 -0.727604,-0.110223 z m -6.482291,-0.2618 c 0.327421,-0.06307 0.863203,-0.06307 1.190624,0 0.327422,0.06306 0.05953,0.114663 -0.595312,0.114663 -0.654844,0 -0.922734,-0.0516 -0.595312,-0.114663 z m 13.229161,0 c 0.32743,-0.06307 0.86321,-0.06307 1.19063,0 0.32742,0.06306 0.0595,0.114663 -0.59531,0.114663 -0.65485,0 -0.92274,-0.0516 -0.59532,-0.114663 z M 87.046289,92.298723 c 0.257431,-0.06708 0.614619,-0.06267 0.79375,0.0098 0.17913,0.07248 -0.03149,0.127363 -0.468056,0.12197 -0.436563,-0.0054 -0.583126,-0.06469 -0.325694,-0.131773 z m 19.314581,0 c 0.25743,-0.06708 0.61462,-0.06267 0.79375,0.0098 0.17913,0.07248 -0.0315,0.127363 -0.46805,0.12197 -0.43657,-0.0054 -0.58313,-0.06469 -0.3257,-0.131773 z m -21.552038,-0.26197 c 0.190995,-0.07643 0.419198,-0.06703 0.507119,0.02088 0.08792,0.08792 -0.06835,0.150453 -0.347266,0.138964 -0.308226,-0.0127 -0.370919,-0.07539 -0.159853,-0.15985 z m 24.077078,0 c 0.191,-0.07643 0.4192,-0.06703 0.50712,0.02088 0.0879,0.08792 -0.0683,0.150453 -0.34726,0.138964 -0.30823,-0.0127 -0.37092,-0.07539 -0.15986,-0.15985 z M 82.940212,91.777681 c 0.181901,-0.0734 0.479557,-0.0734 0.661458,0 0.181902,0.0734 0.03307,0.133454 -0.330729,0.133454 -0.363802,0 -0.51263,-0.06006 -0.330729,-0.133454 z m 27.516668,0 c 0.1819,-0.0734 0.47955,-0.0734 0.66146,0 0.1819,0.0734 0.0331,0.133454 -0.33073,0.133454 -0.36381,0 -0.51263,-0.06006 -0.33073,-0.133454 z M 81.369249,91.507587 c 0.190994,-0.07643 0.419198,-0.06703 0.507119,0.02088 0.08792,0.08792 -0.06835,0.150453 -0.347266,0.138965 -0.308226,-0.0127 -0.370919,-0.07539 -0.159853,-0.159851 z m 30.956251,0 c 0.19099,-0.07643 0.4192,-0.06703 0.50712,0.02088 0.0879,0.08792 -0.0684,0.150453 -0.34727,0.138965 -0.30823,-0.0127 -0.37092,-0.07539 -0.15985,-0.159851 z M 80.046332,91.243003 c 0.190995,-0.07643 0.419198,-0.06703 0.507119,0.02088 0.08792,0.08792 -0.06835,0.150453 -0.347266,0.138965 -0.308226,-0.0127 -0.370919,-0.07539 -0.159853,-0.159851 z m 33.602078,0 c 0.191,-0.07643 0.4192,-0.06703 0.50712,0.02088 0.0879,0.08792 -0.0683,0.150453 -0.34726,0.138965 -0.30823,-0.0127 -0.37092,-0.07539 -0.15986,-0.159851 z M 78.723416,90.97842 c 0.190994,-0.07643 0.419197,-0.06703 0.507118,0.02088 0.08792,0.08792 -0.06835,0.150452 -0.347265,0.138964 -0.308227,-0.0127 -0.37092,-0.07539 -0.159853,-0.15985 z m 36.247914,0 c 0.191,-0.07643 0.4192,-0.06703 0.50712,0.02088 0.0879,0.08792 -0.0683,0.150452 -0.34727,0.138964 -0.30822,-0.0127 -0.37092,-0.07539 -0.15985,-0.15985 z m -51.564164,-6.632281 -0.641432,-0.727604 0.727604,0.641433 c 0.400182,0.352788 0.727604,0.68021 0.727604,0.727604 0,0.207506 -0.214259,0.03862 -0.813776,-0.641433 z m 66.959604,0.06615 c 0.34178,-0.363802 0.68094,-0.661458 0.7537,-0.661458 0.0728,0 -0.14734,0.297656 -0.48911,0.661458 -0.34178,0.363802 -0.68094,0.661458 -0.7537,0.661458 -0.0728,0 0.14734,-0.297656 0.48911,-0.661458 z M 61.595998,80.950653 c 0.0127,-0.308224 0.07539,-0.370919 0.159851,-0.159852 0.07643,0.190996 0.06703,0.419199 -0.02088,0.507118 -0.08792,0.08792 -0.150453,-0.06835 -0.138964,-0.347266 z m 70.643742,0 c 0.0127,-0.308224 0.0754,-0.370919 0.15986,-0.159852 0.0764,0.190996 0.067,0.419199 -0.0209,0.507118 -0.0879,0.08792 -0.15045,-0.06835 -0.13896,-0.347266 z M 79.517165,70.870087 c 0.190995,-0.07643 0.419198,-0.06703 0.507119,0.02089 0.08792,0.08792 -0.06835,0.150452 -0.347265,0.138964 -0.308227,-0.01269 -0.37092,-0.07539 -0.159854,-0.159852 z m 34.660415,0 c 0.191,-0.07643 0.4192,-0.06703 0.50712,0.02089 0.0879,0.08792 -0.0684,0.150452 -0.34727,0.138964 -0.30822,-0.01269 -0.37092,-0.07539 -0.15985,-0.159852 z M 80.840082,70.605503 c 0.190995,-0.07643 0.419198,-0.06703 0.507119,0.02089 0.08792,0.08792 -0.06835,0.150453 -0.347266,0.138965 -0.308226,-0.01269 -0.370919,-0.07539 -0.159853,-0.159853 z m 32.014578,0 c 0.191,-0.07643 0.4192,-0.06703 0.50712,0.02089 0.0879,0.08792 -0.0683,0.150453 -0.34726,0.138965 -0.30823,-0.01269 -0.37092,-0.07539 -0.15986,-0.159853 z M 82.146462,70.346432 c 0.181901,-0.0734 0.479558,-0.0734 0.661459,0 0.181901,0.0734 0.03307,0.133452 -0.33073,0.133452 -0.363802,0 -0.51263,-0.06005 -0.330729,-0.133452 z m 29.104168,0 c 0.1819,-0.0734 0.47955,-0.0734 0.66146,0 0.1819,0.0734 0.0331,0.133452 -0.33073,0.133452 -0.36381,0 -0.51263,-0.06005 -0.33073,-0.133452 z M 84.015082,70.076337 c 0.190995,-0.07643 0.419198,-0.06703 0.507119,0.02089 0.08792,0.08792 -0.06835,0.150453 -0.347266,0.138964 -0.308226,-0.01269 -0.370919,-0.07539 -0.159853,-0.159852 z m 25.664578,0 c 0.191,-0.07643 0.4192,-0.06703 0.50712,0.02089 0.0879,0.08792 -0.0683,0.150453 -0.34726,0.138964 -0.30823,-0.01269 -0.37092,-0.07539 -0.15986,-0.159852 z M 85.850629,69.817266 c 0.181901,-0.0734 0.479557,-0.0734 0.661458,0 0.181901,0.0734 0.03307,0.133452 -0.330729,0.133452 -0.363802,0 -0.51263,-0.06005 -0.330729,-0.133452 z m 21.695831,0 c 0.1819,-0.0734 0.47956,-0.0734 0.66146,0 0.1819,0.0734 0.0331,0.133452 -0.33073,0.133452 -0.3638,0 -0.51263,-0.06005 -0.33073,-0.133452 z M 88.633789,69.544557 c 0.257431,-0.06708 0.614619,-0.06267 0.79375,0.0098 0.17913,0.07247 -0.03149,0.127362 -0.468056,0.121969 -0.436563,-0.0054 -0.583126,-0.06469 -0.325694,-0.131773 z m 16.139581,0 c 0.25743,-0.06708 0.61462,-0.06267 0.79375,0.0098 0.17913,0.07247 -0.0315,0.127362 -0.46805,0.121969 -0.43657,-0.0054 -0.58313,-0.06469 -0.3257,-0.131773 z M 93.001371,69.269256 c 0.622311,-0.05589 1.574811,-0.0551 2.116667,0.0017 0.541856,0.05685 0.03269,0.102582 -1.131472,0.101622 -1.164167,-9.53e-4 -1.607505,-0.04748 -0.985195,-0.10337 z m 6.085417,0 c 0.62231,-0.05589 1.574812,-0.0551 2.116662,0.0017 0.54186,0.05685 0.0327,0.102582 -1.13147,0.101622 -1.164164,-9.53e-4 -1.607503,-0.04748 -0.985192,-0.10337 z M 83.750499,64.255504 c 0.190994,-0.07643 0.419197,-0.06703 0.507119,0.02089 0.08792,0.08792 -0.06835,0.150453 -0.347266,0.138964 -0.308226,-0.0127 -0.370919,-0.07539 -0.159853,-0.159852 z m 26.193751,0 c 0.19099,-0.07643 0.4192,-0.06703 0.50712,0.02089 0.0879,0.08792 -0.0684,0.150453 -0.34727,0.138964 -0.30823,-0.0127 -0.37092,-0.07539 -0.15985,-0.159852 z M 85.867165,63.99092 c 0.190995,-0.07643 0.419198,-0.06703 0.507119,0.02089 0.08792,0.08792 -0.06835,0.150453 -0.347266,0.138965 -0.308226,-0.0127 -0.370919,-0.07539 -0.159853,-0.159853 z m 21.960415,0 c 0.191,-0.07643 0.4192,-0.06703 0.50712,0.02089 0.0879,0.08792 -0.0683,0.150453 -0.34727,0.138965 -0.30822,-0.0127 -0.37092,-0.07539 -0.15985,-0.159853 z M 88.496462,63.731849 c 0.181901,-0.0734 0.479557,-0.0734 0.661458,0 0.181901,0.0734 0.03307,0.133452 -0.330729,0.133452 -0.363802,0 -0.51263,-0.06005 -0.330729,-0.133452 z m 16.404168,0 c 0.1819,-0.0734 0.47956,-0.0734 0.66146,0 0.1819,0.0734 0.0331,0.133452 -0.33073,0.133452 -0.36381,0 -0.51263,-0.06005 -0.33073,-0.133452 z M 92.601141,63.452634 c 0.402183,-0.06082 0.997495,-0.05919 1.322917,0.0036 0.325422,0.0628 -0.0036,0.11256 -0.731242,0.110574 -0.727604,-0.002 -0.993857,-0.05337 -0.591675,-0.114186 z m 7.672919,0 c 0.40218,-0.06082 0.99749,-0.05919 1.32291,0.0036 0.32543,0.0628 -0.004,0.11256 -0.73124,0.110574 -0.7276,-0.002 -0.993855,-0.05337 -0.59167,-0.114186 z"
         id="path1223" /><path
         style="fill:#010101;stroke-width:0.264583"
         d="m 63.54689,198.47863 c -1.00778,-0.44647 -1.707198,-1.48613 -1.707198,-2.53769 0,-0.49156 1.03133,-2.86627 2.645834,-6.0922 1.455208,-2.90765 2.645833,-5.46213 2.645833,-5.67663 0,-0.2145 -1.190625,-2.78559 -2.645833,-5.71352 -2.965456,-5.96661 -3.113747,-6.59865 -1.873787,-7.9864 0.656002,-0.7342 0.951656,-0.86408 1.967002,-0.86408 1.661713,0 2.353066,0.74848 4.2673,4.61988 0.866254,1.75193 1.638496,3.18483 1.716098,3.18423 0.0776,-5.3e-4 0.952429,-1.60886 1.944061,-3.57389 1.843378,-3.65287 2.475439,-4.36251 3.885575,-4.36251 1.620499,0 3.101414,1.73838 2.788497,3.27329 -0.294416,1.44417 -12.175418,24.84474 -12.869423,25.34734 -0.91521,0.66281 -1.841452,0.79088 -2.763959,0.38218 z M 33.857727,186.58769 c -1.541817,-0.85628 -1.511895,-0.6081 -1.60057,-13.27541 -0.04482,-6.40292 -0.0049,-12.16704 0.08881,-12.80916 0.24566,-1.6841 1.298595,-2.66896 2.853439,-2.66896 0.747475,0 1.376048,0.17013 1.710686,0.46302 0.290962,0.25466 1.973819,2.39778 3.739682,4.7625 1.765864,2.36471 3.297167,4.29512 3.402895,4.2898 0.105729,-0.005 1.561452,-1.86133 3.234942,-4.12445 1.673489,-2.26312 3.379265,-4.40189 3.790612,-4.75282 1.083095,-0.92401 2.555591,-0.87039 3.679692,0.13399 l 0.86407,0.77205 v 12.83459 c 0,12.6162 -0.0094,12.84731 -0.55452,13.5816 -0.718136,0.96742 -2.145074,1.3502 -3.280316,0.87997 -1.669978,-0.69173 -1.707672,-0.88493 -1.853705,-9.50101 l -0.132292,-7.80534 -1.818191,2.44272 c -1.000006,1.34349 -2.068295,2.6179 -2.373976,2.83201 -0.56997,0.39922 -2.170778,0.52 -2.946533,0.22232 -0.239308,-0.0918 -1.350374,-1.37176 -2.469035,-2.84427 l -2.033931,-2.67731 -0.132291,8.02575 -0.132292,8.02575 -0.86407,0.77165 c -0.943915,0.84295 -2.129994,1.00032 -3.173105,0.42101 z m 59.559424,-0.025 c -3.328903,-0.80747 -5.961692,-2.71448 -7.217712,-5.22799 -1.20683,-2.41509 -1.031994,-4.15837 0.508307,-5.06825 1.602399,-0.94656 3.386588,-0.30691 4.093218,1.46746 0.604853,1.5188 1.088208,2.02046 2.656435,2.75706 1.790261,0.84088 5.24084,0.87787 7.011461,0.0751 4.26238,-1.93238 2.6816,-4.07855 -3.968753,-5.38827 -7.173118,-1.41267 -10.668195,-3.96036 -11.038715,-8.04652 -0.196217,-2.16392 0.433377,-3.91384 2.040993,-5.67283 2.237664,-2.44836 5.3218,-3.61595 9.565164,-3.62117 3.962901,-0.005 6.762631,0.99531 9.177831,3.27872 1.44481,1.36598 2.16682,2.75432 2.34867,4.51623 0.13029,1.26242 0.0736,1.45765 -0.66236,2.28134 -0.68982,0.77205 -0.97505,0.90078 -1.99586,0.90078 -1.4346,0 -2.29215,-0.68653 -2.92392,-2.3408 -0.52502,-1.37474 -2.0109,-2.406 -4.087957,-2.8372 -3.431191,-0.7123 -7.715512,0.83885 -7.715512,2.79344 0,1.25812 2.047139,2.13247 8.334375,3.55966 5.836394,1.32485 9.143534,4.30778 9.110754,8.21761 -0.0418,4.98769 -5.11331,8.74037 -11.756588,8.69932 -1.164166,-0.007 -2.730092,-0.16187 -3.479831,-0.34373 z m 27.510399,-0.005 c -2.40353,-0.75153 -4.1522,-2.32905 -5.29697,-4.7785 l -0.74193,-1.5875 -0.087,-6.87917 c -0.0907,-7.16649 0.0957,-9.1863 1.01219,-10.9737 0.75158,-1.46568 2.36305,-2.91686 4.23421,-3.81304 l 1.71979,-0.82368 4.63021,0.0148 c 4.21411,0.0134 4.77214,0.0706 6.20951,0.636 2.10849,0.82941 4.07568,2.79244 4.92412,4.91369 0.61459,1.53659 0.63155,1.78325 0.62697,9.11993 -0.004,6.28217 -0.0754,7.71936 -0.42809,8.61164 -0.36322,0.9188 -0.37134,1.14219 -0.0571,1.57192 0.51025,0.69782 0.45178,2.52864 -0.10264,3.21307 -0.95527,1.17931 -2.61376,1.50829 -3.71503,0.73693 -0.54486,-0.38163 -0.70576,-0.38163 -1.8258,0 -1.58063,0.53858 -9.4154,0.56515 -11.1024,0.0376 z m 6.53046,-6.27342 c -1.393,-1.92299 -0.87352,-4.04212 1.155,-4.71159 1.07447,-0.35461 2.07239,-0.0396 3.16118,0.99781 l 0.74597,0.71078 -0.0845,-6.0147 -0.0845,-6.0147 -0.86463,-0.86446 -0.86463,-0.86447 -3.67337,-0.0909 c -3.06369,-0.0758 -3.83332,-0.015 -4.63713,0.36641 -1.66346,0.78936 -1.7342,1.14373 -1.7342,8.68691 v 6.73971 l 0.68339,0.81218 c 0.86721,1.03061 1.79058,1.29151 4.67608,1.32123 l 2.31676,0.0239 -0.79541,-1.09803 z m 18.31846,6.30365 c -1.54181,-0.85628 -1.51189,-0.6081 -1.60057,-13.27541 -0.0448,-6.40292 -0.005,-12.16704 0.0888,-12.80916 0.24392,-1.67218 1.30205,-2.67168 2.81661,-2.66055 0.62965,0.005 1.32342,0.15346 1.5417,0.33073 1.20659,0.97991 1.18382,0.76991 1.32292,12.20273 l 0.13229,10.87375 5.11679,0.13229 5.11679,0.13229 0.6379,0.74236 c 1.17241,1.3644 0.80908,3.5121 -0.72867,4.3073 -0.98476,0.50923 -13.53323,0.5298 -14.44457,0.0237 z M 91.605316,151.46634 c -4.742429,-0.24075 -9.458692,-0.83578 -13.687189,-1.72684 -13.380547,-2.81965 -20.923868,-7.87415 -21.907509,-14.67942 -0.34074,-2.35739 -0.332747,-53.471941 0.0087,-55.308036 1.07586,-5.786185 7.274042,-10.41093 17.875461,-13.337695 7.080792,-1.954817 14.362763,-2.852773 23.134544,-2.852773 8.771787,0 16.053757,0.897956 23.134547,2.852773 10.60142,2.926765 16.7996,7.55151 17.87546,13.337695 0.3414,1.836095 0.34939,52.950646 0.009,55.308036 -1.31973,9.13047 -15.07195,15.34563 -36.35296,16.42928 -2.638896,0.13438 -5.095642,0.2295 -5.459444,0.21139 -0.363802,-0.0181 -2.447396,-0.12359 -4.630208,-0.23441 z m 12.170834,-5.80899 c 13.57191,-0.98341 24.8229,-4.73944 27.83937,-9.2939 0.72495,-1.09459 0.7369,-1.17915 0.8232,-5.82729 0.0482,-2.59412 0.007,-4.71659 -0.0914,-4.71659 -0.0985,0 -0.49506,0.22329 -0.88132,0.4962 -2.91347,2.05842 -9.9482,4.60853 -16.12463,5.84521 -6.49012,1.29949 -10.78349,1.69747 -18.312046,1.69747 -7.528557,0 -11.821921,-0.39798 -18.312047,-1.69747 -6.176433,-1.23668 -13.211161,-3.78679 -16.124628,-5.84521 -0.386266,-0.27291 -0.782863,-0.4962 -0.881322,-0.4962 -0.09846,0 -0.139613,2.12247 -0.09145,4.71659 0.0863,4.64814 0.09825,4.7327 0.823201,5.82729 2.963994,4.47524 14.3043,8.31158 27.442494,9.2836 4.156506,0.30751 9.731803,0.31165 13.890628,0.0103 z m 0.82147,-17.72811 c 11.46128,-0.91233 21.54238,-4.04655 25.76196,-8.00939 1.97222,-1.85224 1.98129,-1.8834 2.08407,-7.15593 l 0.0925,-4.74554 -1.41542,0.84805 c -5.77591,3.46064 -13.68395,5.73394 -24.16958,6.94795 -3.78845,0.43862 -16.055301,0.43862 -19.843751,0 -10.485632,-1.21401 -18.393671,-3.48731 -24.169585,-6.94795 l -1.415421,-0.84805 0.0925,4.74554 c 0.102778,5.27253 0.11185,5.30369 2.084075,7.15593 4.102807,3.85318 14.305179,7.09142 25.143949,7.9807 4.003465,0.32847 11.810083,0.34268 15.754703,0.0287 z m 4.60249,-18.10454 c 6.67059,-0.94009 12.88157,-2.6966 16.93173,-4.78842 2.93509,-1.51591 4.41896,-2.63514 5.43312,-4.098 l 0.78619,-1.13403 0.0926,-4.762156 0.0926,-4.762153 -0.88636,0.592394 c -1.4161,0.946452 -5.99568,3.075469 -8.24804,3.834461 -15.29593,5.154371 -37.449438,5.154371 -52.745367,0 -2.237452,-0.753967 -6.831909,-2.887414 -8.221588,-3.81771 l -0.859896,-0.57564 0.0016,4.193169 c 7.93e-4,2.306243 0.126616,4.64381 0.279569,5.194591 1.182828,4.259384 12.282997,8.950104 24.192911,10.223444 1.455209,0.15559 3.062552,0.33095 3.571875,0.38969 2.390505,0.27573 16.684866,-0.0817 19.579166,-0.48964 z m -1.98438,-17.507795 c 13.15874,-1.409089 23.7418,-5.860041 25.03045,-10.527139 1.20208,-4.353555 -9.01295,-9.792689 -21.85545,-11.637236 -18.408788,-2.644025 -39.266132,0.622058 -46.563512,7.291452 -2.643912,2.416387 -2.777862,4.395209 -0.458641,6.775329 6.311367,6.477084 25.642166,10.047054 43.847153,8.097594 z"
         id="path1221" /></g></g></svg>
